%TF.GenerationSoftware,KiCad,Pcbnew,7.0.1*%
%TF.CreationDate,2024-04-06T20:55:59+09:00*%
%TF.ProjectId,Example,4578616d-706c-4652-9e6b-696361645f70,rev?*%
%TF.SameCoordinates,Original*%
%TF.FileFunction,Copper,L1,Top*%
%TF.FilePolarity,Positive*%
%FSLAX46Y46*%
G04 Gerber Fmt 4.6, Leading zero omitted, Abs format (unit mm)*
G04 Created by KiCad (PCBNEW 7.0.1) date 2024-04-06 20:55:59*
%MOMM*%
%LPD*%
G01*
G04 APERTURE LIST*
G04 Aperture macros list*
%AMRoundRect*
0 Rectangle with rounded corners*
0 $1 Rounding radius*
0 $2 $3 $4 $5 $6 $7 $8 $9 X,Y pos of 4 corners*
0 Add a 4 corners polygon primitive as box body*
4,1,4,$2,$3,$4,$5,$6,$7,$8,$9,$2,$3,0*
0 Add four circle primitives for the rounded corners*
1,1,$1+$1,$2,$3*
1,1,$1+$1,$4,$5*
1,1,$1+$1,$6,$7*
1,1,$1+$1,$8,$9*
0 Add four rect primitives between the rounded corners*
20,1,$1+$1,$2,$3,$4,$5,0*
20,1,$1+$1,$4,$5,$6,$7,0*
20,1,$1+$1,$6,$7,$8,$9,0*
20,1,$1+$1,$8,$9,$2,$3,0*%
G04 Aperture macros list end*
%TA.AperFunction,SMDPad,CuDef*%
%ADD10RoundRect,0.250000X0.337500X0.475000X-0.337500X0.475000X-0.337500X-0.475000X0.337500X-0.475000X0*%
%TD*%
%TA.AperFunction,SMDPad,CuDef*%
%ADD11RoundRect,0.250000X0.350000X0.450000X-0.350000X0.450000X-0.350000X-0.450000X0.350000X-0.450000X0*%
%TD*%
%TA.AperFunction,ComponentPad*%
%ADD12R,1.700000X1.700000*%
%TD*%
%TA.AperFunction,ComponentPad*%
%ADD13O,1.700000X1.700000*%
%TD*%
%TA.AperFunction,SMDPad,CuDef*%
%ADD14R,1.000000X2.800000*%
%TD*%
%TA.AperFunction,SMDPad,CuDef*%
%ADD15RoundRect,0.250000X-0.325000X-0.450000X0.325000X-0.450000X0.325000X0.450000X-0.325000X0.450000X0*%
%TD*%
%TA.AperFunction,Conductor*%
%ADD16C,0.250000*%
%TD*%
G04 APERTURE END LIST*
D10*
%TO.P,C1,1*%
%TO.N,+5V*%
X22037500Y-22000000D03*
%TO.P,C1,2*%
%TO.N,GND*%
X19962500Y-22000000D03*
%TD*%
D11*
%TO.P,R1,1*%
%TO.N,+5V*%
X22000000Y-26000000D03*
%TO.P,R1,2*%
%TO.N,Net-(D1-A)*%
X20000000Y-26000000D03*
%TD*%
D12*
%TO.P,J1,1,Pin_1*%
%TO.N,+5V*%
X22275000Y-6400000D03*
D13*
%TO.P,J1,2,Pin_2*%
%TO.N,GND*%
X19735000Y-6400000D03*
%TD*%
D14*
%TO.P,SW1,1,1*%
%TO.N,GND*%
X19000000Y-16900000D03*
X19000000Y-11100000D03*
%TO.P,SW1,2,2*%
%TO.N,+5V*%
X23000000Y-16900000D03*
X23000000Y-11100000D03*
%TD*%
D15*
%TO.P,D1,1,K*%
%TO.N,GND*%
X14975000Y-26000000D03*
%TO.P,D1,2,A*%
%TO.N,Net-(D1-A)*%
X17025000Y-26000000D03*
%TD*%
D16*
%TO.N,+5V*%
X22037500Y-22000000D02*
X22037500Y-25962500D01*
X23000000Y-21037500D02*
X23000000Y-16900000D01*
X23000000Y-11100000D02*
X23000000Y-7125000D01*
X23000000Y-11100000D02*
X23000000Y-16900000D01*
X22037500Y-22000000D02*
X23000000Y-21037500D01*
%TO.N,GND*%
X18975000Y-22000000D02*
X14975000Y-26000000D01*
X19000000Y-11100000D02*
X19000000Y-16900000D01*
X19000000Y-21037500D02*
X19000000Y-16900000D01*
X19000000Y-7135000D02*
X19735000Y-6400000D01*
X19962500Y-22000000D02*
X19000000Y-21037500D01*
X19000000Y-11100000D02*
X19000000Y-7135000D01*
X19962500Y-22000000D02*
X18975000Y-22000000D01*
%TO.N,Net-(D1-A)*%
X20000000Y-26000000D02*
X17025000Y-26000000D01*
%TD*%
%TA.AperFunction,Conductor*%
%TO.N,+5V*%
G36*
X23124382Y-9201235D02*
G01*
X23128510Y-9204680D01*
X23496227Y-9694969D01*
X23498435Y-9700237D01*
X23497886Y-9705922D01*
X23011019Y-11070124D01*
X23006741Y-11075754D01*
X23000000Y-11077891D01*
X22993259Y-11075754D01*
X22988981Y-11070124D01*
X22502113Y-9705922D01*
X22501564Y-9700236D01*
X22503770Y-9694972D01*
X22871490Y-9204679D01*
X22875618Y-9201235D01*
X22880850Y-9200000D01*
X23119150Y-9200000D01*
X23124382Y-9201235D01*
G37*
%TD.AperFunction*%
%TD*%
%TA.AperFunction,Conductor*%
%TO.N,Net-(D1-A)*%
G36*
X19462374Y-25407744D02*
G01*
X19993840Y-25992127D01*
X19996884Y-25999999D01*
X19993840Y-26007871D01*
X19462375Y-26592254D01*
X19454920Y-26596020D01*
X19446853Y-26593855D01*
X18804834Y-26128504D01*
X18801278Y-26124349D01*
X18800000Y-26119031D01*
X18800000Y-25880969D01*
X18801278Y-25875651D01*
X18804834Y-25871496D01*
X19446855Y-25406143D01*
X19454920Y-25403979D01*
X19462374Y-25407744D01*
G37*
%TD.AperFunction*%
%TD*%
%TA.AperFunction,Conductor*%
%TO.N,Net-(D1-A)*%
G36*
X17569748Y-25431142D02*
G01*
X18170219Y-25871494D01*
X18173737Y-25875640D01*
X18175000Y-25880929D01*
X18175000Y-26119071D01*
X18173737Y-26124360D01*
X18170219Y-26128506D01*
X17569748Y-26568857D01*
X17561740Y-26571071D01*
X17554281Y-26567411D01*
X17031466Y-26007989D01*
X17028314Y-26000000D01*
X17031466Y-25992011D01*
X17144097Y-25871494D01*
X17554282Y-25432587D01*
X17561740Y-25428928D01*
X17569748Y-25431142D01*
G37*
%TD.AperFunction*%
%TD*%
%TA.AperFunction,Conductor*%
%TO.N,+5V*%
G36*
X23006741Y-11124245D02*
G01*
X23011019Y-11129875D01*
X23497886Y-12494077D01*
X23498435Y-12499762D01*
X23496227Y-12505030D01*
X23128510Y-12995320D01*
X23124382Y-12998765D01*
X23119150Y-13000000D01*
X22880850Y-13000000D01*
X22875618Y-12998765D01*
X22871490Y-12995320D01*
X22503772Y-12505030D01*
X22501564Y-12499762D01*
X22502112Y-12494080D01*
X22988981Y-11129874D01*
X22993259Y-11124245D01*
X23000000Y-11122108D01*
X23006741Y-11124245D01*
G37*
%TD.AperFunction*%
%TD*%
%TA.AperFunction,Conductor*%
%TO.N,+5V*%
G36*
X23124382Y-15001235D02*
G01*
X23128510Y-15004680D01*
X23496227Y-15494969D01*
X23498435Y-15500237D01*
X23497886Y-15505922D01*
X23011019Y-16870124D01*
X23006741Y-16875754D01*
X23000000Y-16877891D01*
X22993259Y-16875754D01*
X22988981Y-16870124D01*
X22502113Y-15505922D01*
X22501564Y-15500236D01*
X22503770Y-15494972D01*
X22871490Y-15004679D01*
X22875618Y-15001235D01*
X22880850Y-15000000D01*
X23119150Y-15000000D01*
X23124382Y-15001235D01*
G37*
%TD.AperFunction*%
%TD*%
%TA.AperFunction,Conductor*%
%TO.N,+5V*%
G36*
X23006741Y-16924245D02*
G01*
X23011019Y-16929875D01*
X23497886Y-18294077D01*
X23498435Y-18299762D01*
X23496227Y-18305030D01*
X23128510Y-18795320D01*
X23124382Y-18798765D01*
X23119150Y-18800000D01*
X22880850Y-18800000D01*
X22875618Y-18798765D01*
X22871490Y-18795320D01*
X22503772Y-18305030D01*
X22501564Y-18299762D01*
X22502112Y-18294080D01*
X22988981Y-16929874D01*
X22993259Y-16924245D01*
X23000000Y-16922108D01*
X23006741Y-16924245D01*
G37*
%TD.AperFunction*%
%TD*%
%TA.AperFunction,Conductor*%
%TO.N,+5V*%
G36*
X22161547Y-24701618D02*
G01*
X22165842Y-24706024D01*
X22576554Y-25446369D01*
X22577883Y-25453847D01*
X22574341Y-25460566D01*
X22008018Y-25993455D01*
X22000000Y-25996634D01*
X21991982Y-25993455D01*
X21426171Y-25461048D01*
X21422571Y-25453907D01*
X21424397Y-25446124D01*
X21909036Y-24705294D01*
X21913261Y-24701408D01*
X21918827Y-24700000D01*
X22155611Y-24700000D01*
X22161547Y-24701618D01*
G37*
%TD.AperFunction*%
%TD*%
%TA.AperFunction,Conductor*%
%TO.N,+5V*%
G36*
X23114725Y-21009127D02*
G01*
X23118912Y-21015344D01*
X23118466Y-21022826D01*
X22629395Y-22227950D01*
X22623114Y-22234325D01*
X22614165Y-22234395D01*
X22043633Y-22003482D01*
X22038863Y-21999917D01*
X22036466Y-21994466D01*
X21924242Y-21285271D01*
X21925946Y-21277132D01*
X21932624Y-21272180D01*
X22873445Y-21007163D01*
X22876617Y-21006726D01*
X23107625Y-21006726D01*
X23114725Y-21009127D01*
G37*
%TD.AperFunction*%
%TD*%
%TA.AperFunction,Conductor*%
%TO.N,+5V*%
G36*
X22045794Y-22007341D02*
G01*
X22528351Y-22492614D01*
X22599558Y-22564223D01*
X22602875Y-22571050D01*
X22601304Y-22578476D01*
X22165906Y-23306803D01*
X22161637Y-23310977D01*
X22155864Y-23312500D01*
X21919136Y-23312500D01*
X21913363Y-23310977D01*
X21909094Y-23306803D01*
X21473694Y-22578473D01*
X21472124Y-22571050D01*
X21475440Y-22564224D01*
X22029205Y-22007341D01*
X22034461Y-22004294D01*
X22040539Y-22004294D01*
X22045794Y-22007341D01*
G37*
%TD.AperFunction*%
%TD*%
%TA.AperFunction,Conductor*%
%TO.N,GND*%
G36*
X29437500Y-517113D02*
G01*
X29482887Y-562500D01*
X29499500Y-624500D01*
X29499500Y-29375500D01*
X29482887Y-29437500D01*
X29437500Y-29482887D01*
X29375500Y-29499500D01*
X624500Y-29499500D01*
X562500Y-29482887D01*
X517113Y-29437500D01*
X500500Y-29375500D01*
X500500Y-26125000D01*
X14150000Y-26125000D01*
X14150000Y-26497824D01*
X14156402Y-26557375D01*
X14206647Y-26692089D01*
X14292811Y-26807188D01*
X14407910Y-26893352D01*
X14542624Y-26943597D01*
X14602176Y-26950000D01*
X14850000Y-26950000D01*
X14850000Y-26125000D01*
X15100000Y-26125000D01*
X15100000Y-26950000D01*
X15347824Y-26950000D01*
X15407375Y-26943597D01*
X15542089Y-26893352D01*
X15657188Y-26807188D01*
X15743352Y-26692089D01*
X15793597Y-26557375D01*
X15799995Y-26497869D01*
X16199500Y-26497869D01*
X16205897Y-26557375D01*
X16205909Y-26557483D01*
X16256204Y-26692331D01*
X16342454Y-26807546D01*
X16457669Y-26893796D01*
X16592517Y-26944091D01*
X16652127Y-26950500D01*
X17397872Y-26950499D01*
X17457483Y-26944091D01*
X17592331Y-26893796D01*
X17707546Y-26807546D01*
X17734499Y-26771540D01*
X17760434Y-26745858D01*
X18232727Y-26399506D01*
X18267478Y-26381654D01*
X18306058Y-26375500D01*
X18670031Y-26375500D01*
X18708283Y-26381547D01*
X18742801Y-26399099D01*
X18961166Y-26557375D01*
X19260786Y-26774547D01*
X19287278Y-26800633D01*
X19292451Y-26807543D01*
X19292452Y-26807544D01*
X19292454Y-26807546D01*
X19407669Y-26893796D01*
X19542517Y-26944091D01*
X19602127Y-26950500D01*
X20397872Y-26950499D01*
X20457483Y-26944091D01*
X20592331Y-26893796D01*
X20707546Y-26807546D01*
X20793796Y-26692331D01*
X20844091Y-26557483D01*
X20850500Y-26497873D01*
X20850500Y-26497869D01*
X21149500Y-26497869D01*
X21155897Y-26557375D01*
X21155909Y-26557483D01*
X21206204Y-26692331D01*
X21292454Y-26807546D01*
X21407669Y-26893796D01*
X21542517Y-26944091D01*
X21602127Y-26950500D01*
X22397872Y-26950499D01*
X22457483Y-26944091D01*
X22592331Y-26893796D01*
X22707546Y-26807546D01*
X22793796Y-26692331D01*
X22844091Y-26557483D01*
X22850500Y-26497873D01*
X22850499Y-25502128D01*
X22844091Y-25442517D01*
X22813766Y-25361211D01*
X22813095Y-25359368D01*
X22798588Y-25318511D01*
X22794661Y-25309989D01*
X22793796Y-25307669D01*
X22791121Y-25304095D01*
X22781956Y-25289939D01*
X22756044Y-25243231D01*
X22428567Y-24652924D01*
X22413000Y-24592771D01*
X22413000Y-23425649D01*
X22430568Y-23362023D01*
X22665760Y-22968597D01*
X22801461Y-22741596D01*
X22808620Y-22730923D01*
X22818796Y-22717331D01*
X22842536Y-22653679D01*
X22843195Y-22651956D01*
X22851272Y-22631358D01*
X22851273Y-22631350D01*
X22853253Y-22626302D01*
X22855033Y-22620171D01*
X22869091Y-22582483D01*
X22875500Y-22522873D01*
X22875499Y-22325171D01*
X22884600Y-22278542D01*
X23286357Y-21288569D01*
X23303398Y-21259045D01*
X23334809Y-21218689D01*
X23334810Y-21218685D01*
X23339666Y-21212447D01*
X23339753Y-21212279D01*
X23342010Y-21204699D01*
X23356954Y-21154501D01*
X23358491Y-21149702D01*
X23375500Y-21100160D01*
X23375500Y-21100157D01*
X23378060Y-21092700D01*
X23378094Y-21092466D01*
X23377768Y-21084590D01*
X23377769Y-21084588D01*
X23375606Y-21032293D01*
X23375500Y-21027169D01*
X23375500Y-18933166D01*
X23381863Y-18893954D01*
X23400300Y-18858766D01*
X23700627Y-18458330D01*
X23729414Y-18408071D01*
X23733897Y-18400834D01*
X23735966Y-18397740D01*
X23739103Y-18381967D01*
X23741323Y-18372693D01*
X23751054Y-18338022D01*
X23752752Y-18275203D01*
X23752206Y-18269552D01*
X23751468Y-18261906D01*
X23752002Y-18261854D01*
X23750500Y-18248220D01*
X23750500Y-15551779D01*
X23752002Y-15538144D01*
X23751468Y-15538093D01*
X23752752Y-15524799D01*
X23751054Y-15461979D01*
X23751054Y-15461978D01*
X23751054Y-15461977D01*
X23741322Y-15427302D01*
X23739099Y-15418013D01*
X23735966Y-15402260D01*
X23735965Y-15402259D01*
X23733901Y-15399169D01*
X23729415Y-15391927D01*
X23700627Y-15341669D01*
X23400300Y-14941234D01*
X23400299Y-14941233D01*
X23400299Y-14941232D01*
X23381863Y-14906046D01*
X23375500Y-14866834D01*
X23375500Y-13133166D01*
X23381863Y-13093954D01*
X23400300Y-13058766D01*
X23700627Y-12658330D01*
X23729414Y-12608071D01*
X23733897Y-12600834D01*
X23735966Y-12597740D01*
X23739103Y-12581967D01*
X23741323Y-12572693D01*
X23751054Y-12538022D01*
X23752752Y-12475203D01*
X23752206Y-12469552D01*
X23751468Y-12461906D01*
X23752002Y-12461854D01*
X23750500Y-12448220D01*
X23750500Y-9751779D01*
X23752002Y-9738144D01*
X23751468Y-9738093D01*
X23752752Y-9724799D01*
X23751054Y-9661979D01*
X23751054Y-9661978D01*
X23751054Y-9661977D01*
X23741322Y-9627302D01*
X23739099Y-9618013D01*
X23735966Y-9602260D01*
X23735965Y-9602259D01*
X23733901Y-9599169D01*
X23729415Y-9591927D01*
X23700627Y-9541669D01*
X23400300Y-9141234D01*
X23400299Y-9141233D01*
X23400299Y-9141232D01*
X23381863Y-9106046D01*
X23375500Y-9066834D01*
X23375500Y-5525325D01*
X23360966Y-5452261D01*
X23360966Y-5452260D01*
X23305601Y-5369399D01*
X23222740Y-5314034D01*
X23222739Y-5314033D01*
X23222738Y-5314033D01*
X23149675Y-5299500D01*
X23149674Y-5299500D01*
X21400326Y-5299500D01*
X21400325Y-5299500D01*
X21327261Y-5314033D01*
X21244399Y-5369399D01*
X21189033Y-5452261D01*
X21174500Y-5525325D01*
X21174500Y-7274675D01*
X21189033Y-7347738D01*
X21189033Y-7347739D01*
X21189034Y-7347740D01*
X21244399Y-7430601D01*
X21327260Y-7485966D01*
X21363792Y-7493232D01*
X21400325Y-7500500D01*
X21400326Y-7500500D01*
X22500500Y-7500500D01*
X22562500Y-7517113D01*
X22607887Y-7562500D01*
X22624500Y-7624500D01*
X22624500Y-9066833D01*
X22618137Y-9106045D01*
X22599700Y-9141233D01*
X22299369Y-9541673D01*
X22270583Y-9591927D01*
X22266098Y-9599169D01*
X22264033Y-9602259D01*
X22260905Y-9617983D01*
X22258679Y-9627280D01*
X22248944Y-9661978D01*
X22248943Y-9661981D01*
X22248944Y-9661981D01*
X22247247Y-9724791D01*
X22247248Y-9724799D01*
X22248532Y-9738099D01*
X22247997Y-9738150D01*
X22249500Y-9751781D01*
X22249500Y-12448234D01*
X22247996Y-12461883D01*
X22248527Y-12461935D01*
X22247243Y-12475238D01*
X22248946Y-12538037D01*
X22258676Y-12572705D01*
X22260906Y-12582017D01*
X22264033Y-12597739D01*
X22266083Y-12600807D01*
X22270575Y-12608058D01*
X22299373Y-12658332D01*
X22599700Y-13058766D01*
X22618137Y-13093954D01*
X22624500Y-13133166D01*
X22624500Y-14866833D01*
X22618137Y-14906045D01*
X22599700Y-14941233D01*
X22299369Y-15341673D01*
X22270583Y-15391927D01*
X22266098Y-15399169D01*
X22264033Y-15402259D01*
X22260905Y-15417983D01*
X22258679Y-15427280D01*
X22248944Y-15461978D01*
X22248943Y-15461981D01*
X22248944Y-15461981D01*
X22247247Y-15524791D01*
X22247248Y-15524799D01*
X22248532Y-15538099D01*
X22247997Y-15538150D01*
X22249500Y-15551781D01*
X22249500Y-18248234D01*
X22247996Y-18261883D01*
X22248527Y-18261935D01*
X22247243Y-18275238D01*
X22248946Y-18338037D01*
X22258676Y-18372705D01*
X22260906Y-18382017D01*
X22264033Y-18397739D01*
X22266083Y-18400807D01*
X22270575Y-18408058D01*
X22299373Y-18458332D01*
X22599700Y-18858766D01*
X22618137Y-18893954D01*
X22624500Y-18933166D01*
X22624500Y-20717948D01*
X22613104Y-20769874D01*
X22581012Y-20812255D01*
X22534121Y-20837303D01*
X21886051Y-21019855D01*
X21852431Y-21024500D01*
X21652130Y-21024500D01*
X21592515Y-21030909D01*
X21457669Y-21081204D01*
X21342454Y-21167454D01*
X21256204Y-21282668D01*
X21205909Y-21417516D01*
X21199500Y-21477130D01*
X21199500Y-22522869D01*
X21205909Y-22582483D01*
X21219969Y-22620181D01*
X21221750Y-22626306D01*
X21231741Y-22651794D01*
X21232475Y-22653714D01*
X21256203Y-22717330D01*
X21266374Y-22730916D01*
X21273541Y-22741603D01*
X21644432Y-23362024D01*
X21662000Y-23425650D01*
X21662000Y-24579249D01*
X21656834Y-24614666D01*
X21641768Y-24647133D01*
X21235721Y-25267823D01*
X21231222Y-25274247D01*
X21206204Y-25307668D01*
X21181922Y-25372767D01*
X21179723Y-25378258D01*
X21175020Y-25389235D01*
X21171756Y-25400026D01*
X21155909Y-25442515D01*
X21149500Y-25502130D01*
X21149500Y-26497869D01*
X20850500Y-26497869D01*
X20850499Y-25502128D01*
X20844091Y-25442517D01*
X20793796Y-25307669D01*
X20707546Y-25192454D01*
X20592331Y-25106204D01*
X20457483Y-25055909D01*
X20397873Y-25049500D01*
X20397869Y-25049500D01*
X19602130Y-25049500D01*
X19542515Y-25055909D01*
X19407669Y-25106204D01*
X19292450Y-25192457D01*
X19287280Y-25199363D01*
X19260792Y-25225445D01*
X18742801Y-25600900D01*
X18708280Y-25618452D01*
X18670028Y-25624500D01*
X18306057Y-25624500D01*
X18267477Y-25618346D01*
X18232727Y-25600494D01*
X17833422Y-25307666D01*
X17760434Y-25254140D01*
X17734498Y-25228457D01*
X17707547Y-25192455D01*
X17592331Y-25106204D01*
X17457483Y-25055909D01*
X17397873Y-25049500D01*
X17397869Y-25049500D01*
X16652130Y-25049500D01*
X16592515Y-25055909D01*
X16457669Y-25106204D01*
X16342454Y-25192454D01*
X16256204Y-25307668D01*
X16205909Y-25442516D01*
X16199500Y-25502130D01*
X16199500Y-26497869D01*
X15799995Y-26497869D01*
X15800000Y-26497824D01*
X15800000Y-26125000D01*
X15100000Y-26125000D01*
X14850000Y-26125000D01*
X14150000Y-26125000D01*
X500500Y-26125000D01*
X500500Y-25875000D01*
X14150000Y-25875000D01*
X14850000Y-25875000D01*
X14850000Y-25050000D01*
X15100000Y-25050000D01*
X15100000Y-25875000D01*
X15800000Y-25875000D01*
X15800000Y-25502176D01*
X15793597Y-25442624D01*
X15743352Y-25307910D01*
X15657188Y-25192811D01*
X15542089Y-25106647D01*
X15407375Y-25056402D01*
X15347824Y-25050000D01*
X15100000Y-25050000D01*
X14850000Y-25050000D01*
X14602176Y-25050000D01*
X14542624Y-25056402D01*
X14407910Y-25106647D01*
X14292811Y-25192811D01*
X14206647Y-25307910D01*
X14156402Y-25442624D01*
X14150000Y-25502176D01*
X14150000Y-25875000D01*
X500500Y-25875000D01*
X500500Y-22125000D01*
X19125000Y-22125000D01*
X19125000Y-22522824D01*
X19131402Y-22582375D01*
X19181647Y-22717089D01*
X19267811Y-22832188D01*
X19382910Y-22918352D01*
X19517624Y-22968597D01*
X19577176Y-22975000D01*
X19837500Y-22975000D01*
X19837500Y-22125000D01*
X20087500Y-22125000D01*
X20087500Y-22975000D01*
X20347824Y-22975000D01*
X20407375Y-22968597D01*
X20542089Y-22918352D01*
X20657188Y-22832188D01*
X20743352Y-22717089D01*
X20793597Y-22582375D01*
X20800000Y-22522824D01*
X20800000Y-22125000D01*
X20087500Y-22125000D01*
X19837500Y-22125000D01*
X19125000Y-22125000D01*
X500500Y-22125000D01*
X500500Y-21875000D01*
X19125000Y-21875000D01*
X19837500Y-21875000D01*
X19837500Y-21025000D01*
X20087500Y-21025000D01*
X20087500Y-21875000D01*
X20800000Y-21875000D01*
X20800000Y-21477176D01*
X20793597Y-21417624D01*
X20743352Y-21282910D01*
X20657188Y-21167811D01*
X20542089Y-21081647D01*
X20407375Y-21031402D01*
X20347824Y-21025000D01*
X20087500Y-21025000D01*
X19837500Y-21025000D01*
X19577176Y-21025000D01*
X19517624Y-21031402D01*
X19382910Y-21081647D01*
X19267811Y-21167811D01*
X19181647Y-21282910D01*
X19131402Y-21417624D01*
X19125000Y-21477176D01*
X19125000Y-21875000D01*
X500500Y-21875000D01*
X500500Y-17025000D01*
X18250000Y-17025000D01*
X18250000Y-18324625D01*
X18264504Y-18397543D01*
X18319760Y-18480239D01*
X18402456Y-18535495D01*
X18475375Y-18550000D01*
X18875000Y-18550000D01*
X18875000Y-17025000D01*
X19125000Y-17025000D01*
X19125000Y-18550000D01*
X19524625Y-18550000D01*
X19597543Y-18535495D01*
X19680239Y-18480239D01*
X19735495Y-18397543D01*
X19750000Y-18324625D01*
X19750000Y-17025000D01*
X19125000Y-17025000D01*
X18875000Y-17025000D01*
X18250000Y-17025000D01*
X500500Y-17025000D01*
X500500Y-16775000D01*
X18250000Y-16775000D01*
X18875000Y-16775000D01*
X18875000Y-15250000D01*
X19125000Y-15250000D01*
X19125000Y-16775000D01*
X19750000Y-16775000D01*
X19750000Y-15475375D01*
X19735495Y-15402456D01*
X19680239Y-15319760D01*
X19597543Y-15264504D01*
X19524625Y-15250000D01*
X19125000Y-15250000D01*
X18875000Y-15250000D01*
X18475375Y-15250000D01*
X18402456Y-15264504D01*
X18319760Y-15319760D01*
X18264504Y-15402456D01*
X18250000Y-15475375D01*
X18250000Y-16775000D01*
X500500Y-16775000D01*
X500500Y-11225000D01*
X18250000Y-11225000D01*
X18250000Y-12524625D01*
X18264504Y-12597543D01*
X18319760Y-12680239D01*
X18402456Y-12735495D01*
X18475375Y-12750000D01*
X18875000Y-12750000D01*
X18875000Y-11225000D01*
X19125000Y-11225000D01*
X19125000Y-12750000D01*
X19524625Y-12750000D01*
X19597543Y-12735495D01*
X19680239Y-12680239D01*
X19735495Y-12597543D01*
X19750000Y-12524625D01*
X19750000Y-11225000D01*
X19125000Y-11225000D01*
X18875000Y-11225000D01*
X18250000Y-11225000D01*
X500500Y-11225000D01*
X500500Y-10975000D01*
X18250000Y-10975000D01*
X18875000Y-10975000D01*
X18875000Y-9450000D01*
X19125000Y-9450000D01*
X19125000Y-10975000D01*
X19750000Y-10975000D01*
X19750000Y-9675375D01*
X19735495Y-9602456D01*
X19680239Y-9519760D01*
X19597543Y-9464504D01*
X19524625Y-9450000D01*
X19125000Y-9450000D01*
X18875000Y-9450000D01*
X18475375Y-9450000D01*
X18402456Y-9464504D01*
X18319760Y-9519760D01*
X18264504Y-9602456D01*
X18250000Y-9675375D01*
X18250000Y-10975000D01*
X500500Y-10975000D01*
X500500Y-6525000D01*
X18641870Y-6525000D01*
X18649096Y-6602992D01*
X18704885Y-6799068D01*
X18795751Y-6981553D01*
X18918607Y-7144241D01*
X19069259Y-7281578D01*
X19242588Y-7388899D01*
X19432679Y-7462540D01*
X19610000Y-7495687D01*
X19610000Y-6525000D01*
X19860000Y-6525000D01*
X19860000Y-7495687D01*
X20037320Y-7462540D01*
X20227411Y-7388899D01*
X20400740Y-7281578D01*
X20551392Y-7144241D01*
X20674248Y-6981553D01*
X20765114Y-6799068D01*
X20820903Y-6602992D01*
X20828130Y-6525000D01*
X19860000Y-6525000D01*
X19610000Y-6525000D01*
X18641870Y-6525000D01*
X500500Y-6525000D01*
X500500Y-6274999D01*
X18641869Y-6274999D01*
X18641870Y-6275000D01*
X19610000Y-6275000D01*
X19610000Y-5304312D01*
X19859999Y-5304312D01*
X19860000Y-5304313D01*
X19860000Y-6275000D01*
X20828130Y-6275000D01*
X20828130Y-6274999D01*
X20820903Y-6197007D01*
X20765114Y-6000931D01*
X20674248Y-5818446D01*
X20551392Y-5655758D01*
X20400740Y-5518421D01*
X20227411Y-5411100D01*
X20037320Y-5337459D01*
X19859999Y-5304312D01*
X19610000Y-5304312D01*
X19432679Y-5337459D01*
X19242588Y-5411100D01*
X19069259Y-5518421D01*
X18918607Y-5655758D01*
X18795751Y-5818446D01*
X18704885Y-6000931D01*
X18649096Y-6197007D01*
X18641869Y-6274999D01*
X500500Y-6274999D01*
X500500Y-624500D01*
X517113Y-562500D01*
X562500Y-517113D01*
X624500Y-500500D01*
X29375500Y-500500D01*
X29437500Y-517113D01*
G37*
%TD.AperFunction*%
%TD*%
M02*
