%TF.GenerationSoftware,KiCad,Pcbnew,7.0.1*%
%TF.CreationDate,2024-04-06T20:24:51+09:00*%
%TF.ProjectId,Example,4578616d-706c-4652-9e6b-696361645f70,rev?*%
%TF.SameCoordinates,Original*%
%TF.FileFunction,Legend,Top*%
%TF.FilePolarity,Positive*%
%FSLAX46Y46*%
G04 Gerber Fmt 4.6, Leading zero omitted, Abs format (unit mm)*
G04 Created by KiCad (PCBNEW 7.0.1) date 2024-04-06 20:24:51*
%MOMM*%
%LPD*%
G01*
G04 APERTURE LIST*
%ADD10C,0.150000*%
%ADD11C,0.120000*%
G04 APERTURE END LIST*
D10*
%TO.C,SW1*%
X25655000Y-15333332D02*
X25702619Y-15190475D01*
X25702619Y-15190475D02*
X25702619Y-14952380D01*
X25702619Y-14952380D02*
X25655000Y-14857142D01*
X25655000Y-14857142D02*
X25607380Y-14809523D01*
X25607380Y-14809523D02*
X25512142Y-14761904D01*
X25512142Y-14761904D02*
X25416904Y-14761904D01*
X25416904Y-14761904D02*
X25321666Y-14809523D01*
X25321666Y-14809523D02*
X25274047Y-14857142D01*
X25274047Y-14857142D02*
X25226428Y-14952380D01*
X25226428Y-14952380D02*
X25178809Y-15142856D01*
X25178809Y-15142856D02*
X25131190Y-15238094D01*
X25131190Y-15238094D02*
X25083571Y-15285713D01*
X25083571Y-15285713D02*
X24988333Y-15333332D01*
X24988333Y-15333332D02*
X24893095Y-15333332D01*
X24893095Y-15333332D02*
X24797857Y-15285713D01*
X24797857Y-15285713D02*
X24750238Y-15238094D01*
X24750238Y-15238094D02*
X24702619Y-15142856D01*
X24702619Y-15142856D02*
X24702619Y-14904761D01*
X24702619Y-14904761D02*
X24750238Y-14761904D01*
X24702619Y-14428570D02*
X25702619Y-14190475D01*
X25702619Y-14190475D02*
X24988333Y-13999999D01*
X24988333Y-13999999D02*
X25702619Y-13809523D01*
X25702619Y-13809523D02*
X24702619Y-13571428D01*
X25702619Y-12666666D02*
X25702619Y-13238094D01*
X25702619Y-12952380D02*
X24702619Y-12952380D01*
X24702619Y-12952380D02*
X24845476Y-13047618D01*
X24845476Y-13047618D02*
X24940714Y-13142856D01*
X24940714Y-13142856D02*
X24988333Y-13238094D01*
%TO.C,R1*%
X20833333Y-28112619D02*
X20500000Y-27636428D01*
X20261905Y-28112619D02*
X20261905Y-27112619D01*
X20261905Y-27112619D02*
X20642857Y-27112619D01*
X20642857Y-27112619D02*
X20738095Y-27160238D01*
X20738095Y-27160238D02*
X20785714Y-27207857D01*
X20785714Y-27207857D02*
X20833333Y-27303095D01*
X20833333Y-27303095D02*
X20833333Y-27445952D01*
X20833333Y-27445952D02*
X20785714Y-27541190D01*
X20785714Y-27541190D02*
X20738095Y-27588809D01*
X20738095Y-27588809D02*
X20642857Y-27636428D01*
X20642857Y-27636428D02*
X20261905Y-27636428D01*
X21785714Y-28112619D02*
X21214286Y-28112619D01*
X21500000Y-28112619D02*
X21500000Y-27112619D01*
X21500000Y-27112619D02*
X21404762Y-27255476D01*
X21404762Y-27255476D02*
X21309524Y-27350714D01*
X21309524Y-27350714D02*
X21214286Y-27398333D01*
%TO.C,J1*%
X24067619Y-6733333D02*
X24781904Y-6733333D01*
X24781904Y-6733333D02*
X24924761Y-6780952D01*
X24924761Y-6780952D02*
X25020000Y-6876190D01*
X25020000Y-6876190D02*
X25067619Y-7019047D01*
X25067619Y-7019047D02*
X25067619Y-7114285D01*
X25067619Y-5733333D02*
X25067619Y-6304761D01*
X25067619Y-6019047D02*
X24067619Y-6019047D01*
X24067619Y-6019047D02*
X24210476Y-6114285D01*
X24210476Y-6114285D02*
X24305714Y-6209523D01*
X24305714Y-6209523D02*
X24353333Y-6304761D01*
%TO.C,D1*%
X15261905Y-24812619D02*
X15261905Y-23812619D01*
X15261905Y-23812619D02*
X15500000Y-23812619D01*
X15500000Y-23812619D02*
X15642857Y-23860238D01*
X15642857Y-23860238D02*
X15738095Y-23955476D01*
X15738095Y-23955476D02*
X15785714Y-24050714D01*
X15785714Y-24050714D02*
X15833333Y-24241190D01*
X15833333Y-24241190D02*
X15833333Y-24384047D01*
X15833333Y-24384047D02*
X15785714Y-24574523D01*
X15785714Y-24574523D02*
X15738095Y-24669761D01*
X15738095Y-24669761D02*
X15642857Y-24765000D01*
X15642857Y-24765000D02*
X15500000Y-24812619D01*
X15500000Y-24812619D02*
X15261905Y-24812619D01*
X16785714Y-24812619D02*
X16214286Y-24812619D01*
X16500000Y-24812619D02*
X16500000Y-23812619D01*
X16500000Y-23812619D02*
X16404762Y-23955476D01*
X16404762Y-23955476D02*
X16309524Y-24050714D01*
X16309524Y-24050714D02*
X16214286Y-24098333D01*
%TO.C,C1*%
X20833333Y-24047380D02*
X20785714Y-24095000D01*
X20785714Y-24095000D02*
X20642857Y-24142619D01*
X20642857Y-24142619D02*
X20547619Y-24142619D01*
X20547619Y-24142619D02*
X20404762Y-24095000D01*
X20404762Y-24095000D02*
X20309524Y-23999761D01*
X20309524Y-23999761D02*
X20261905Y-23904523D01*
X20261905Y-23904523D02*
X20214286Y-23714047D01*
X20214286Y-23714047D02*
X20214286Y-23571190D01*
X20214286Y-23571190D02*
X20261905Y-23380714D01*
X20261905Y-23380714D02*
X20309524Y-23285476D01*
X20309524Y-23285476D02*
X20404762Y-23190238D01*
X20404762Y-23190238D02*
X20547619Y-23142619D01*
X20547619Y-23142619D02*
X20642857Y-23142619D01*
X20642857Y-23142619D02*
X20785714Y-23190238D01*
X20785714Y-23190238D02*
X20833333Y-23237857D01*
X21785714Y-24142619D02*
X21214286Y-24142619D01*
X21500000Y-24142619D02*
X21500000Y-23142619D01*
X21500000Y-23142619D02*
X21404762Y-23285476D01*
X21404762Y-23285476D02*
X21309524Y-23380714D01*
X21309524Y-23380714D02*
X21214286Y-23428333D01*
D11*
%TO.C,SW1*%
X18200000Y-10790000D02*
X17790000Y-10790000D01*
X17790000Y-10790000D02*
X17790000Y-17210000D01*
X24210000Y-10790000D02*
X23930000Y-10790000D01*
X22200000Y-10790000D02*
X19800000Y-10790000D01*
X19800000Y-17210000D02*
X22200000Y-17210000D01*
X17790000Y-17210000D02*
X18200000Y-17210000D01*
X24210000Y-17210000D02*
X24210000Y-10790000D01*
X23800000Y-17210000D02*
X24210000Y-17210000D01*
%TO.C,R1*%
X21227064Y-25265000D02*
X20772936Y-25265000D01*
X21227064Y-26735000D02*
X20772936Y-26735000D01*
%TO.C,J1*%
X21005000Y-7730000D02*
X18405000Y-7730000D01*
X23605000Y-5070000D02*
X23605000Y-6400000D01*
X21005000Y-5070000D02*
X21005000Y-7730000D01*
X21005000Y-5070000D02*
X18405000Y-5070000D01*
X18405000Y-5070000D02*
X18405000Y-7730000D01*
X22275000Y-5070000D02*
X23605000Y-5070000D01*
%TO.C,D1*%
X14140000Y-25040000D02*
X14140000Y-26960000D01*
X17000000Y-25040000D02*
X14140000Y-25040000D01*
X14140000Y-26960000D02*
X17000000Y-26960000D01*
%TO.C,C1*%
X21261252Y-21265000D02*
X20738748Y-21265000D01*
X21261252Y-22735000D02*
X20738748Y-22735000D01*
%TD*%
M02*
