%TF.GenerationSoftware,KiCad,Pcbnew,7.0.1*%
%TF.CreationDate,2024-04-06T20:24:51+09:00*%
%TF.ProjectId,Example,4578616d-706c-4652-9e6b-696361645f70,rev?*%
%TF.SameCoordinates,Original*%
%TF.FileFunction,Copper,L2,Bot*%
%TF.FilePolarity,Positive*%
%FSLAX46Y46*%
G04 Gerber Fmt 4.6, Leading zero omitted, Abs format (unit mm)*
G04 Created by KiCad (PCBNEW 7.0.1) date 2024-04-06 20:24:51*
%MOMM*%
%LPD*%
G01*
G04 APERTURE LIST*
%TA.AperFunction,ComponentPad*%
%ADD10O,1.700000X1.700000*%
%TD*%
%TA.AperFunction,ComponentPad*%
%ADD11R,1.700000X1.700000*%
%TD*%
G04 APERTURE END LIST*
D10*
%TO.P,J1,2,Pin_2*%
%TO.N,GND*%
X19735000Y-6400000D03*
D11*
%TO.P,J1,1,Pin_1*%
%TO.N,+5V*%
X22275000Y-6400000D03*
%TD*%
%TA.AperFunction,Conductor*%
%TO.N,GND*%
G36*
X29437500Y-517113D02*
G01*
X29482887Y-562500D01*
X29499500Y-624500D01*
X29499500Y-29375500D01*
X29482887Y-29437500D01*
X29437500Y-29482887D01*
X29375500Y-29499500D01*
X624500Y-29499500D01*
X562500Y-29482887D01*
X517113Y-29437500D01*
X500500Y-29375500D01*
X500500Y-6525000D01*
X18641870Y-6525000D01*
X18649096Y-6602992D01*
X18704885Y-6799068D01*
X18795751Y-6981553D01*
X18918607Y-7144241D01*
X19069259Y-7281578D01*
X19242588Y-7388899D01*
X19432679Y-7462540D01*
X19610000Y-7495687D01*
X19610000Y-6525000D01*
X19860000Y-6525000D01*
X19860000Y-7495687D01*
X20037320Y-7462540D01*
X20227411Y-7388899D01*
X20400740Y-7281578D01*
X20408312Y-7274675D01*
X21174500Y-7274675D01*
X21189033Y-7347738D01*
X21189033Y-7347739D01*
X21189034Y-7347740D01*
X21244399Y-7430601D01*
X21327260Y-7485966D01*
X21363792Y-7493232D01*
X21400325Y-7500500D01*
X21400326Y-7500500D01*
X23149674Y-7500500D01*
X23149675Y-7500500D01*
X23174029Y-7495655D01*
X23222740Y-7485966D01*
X23305601Y-7430601D01*
X23360966Y-7347740D01*
X23375500Y-7274674D01*
X23375500Y-5525326D01*
X23374126Y-5518421D01*
X23360966Y-5452261D01*
X23360966Y-5452260D01*
X23305601Y-5369399D01*
X23222740Y-5314034D01*
X23222739Y-5314033D01*
X23222738Y-5314033D01*
X23149675Y-5299500D01*
X23149674Y-5299500D01*
X21400326Y-5299500D01*
X21400325Y-5299500D01*
X21327261Y-5314033D01*
X21244399Y-5369399D01*
X21189033Y-5452261D01*
X21174500Y-5525325D01*
X21174500Y-7274675D01*
X20408312Y-7274675D01*
X20551392Y-7144241D01*
X20674248Y-6981553D01*
X20765114Y-6799068D01*
X20820903Y-6602992D01*
X20828130Y-6525000D01*
X19860000Y-6525000D01*
X19610000Y-6525000D01*
X18641870Y-6525000D01*
X500500Y-6525000D01*
X500500Y-6274999D01*
X18641869Y-6274999D01*
X18641870Y-6275000D01*
X19610000Y-6275000D01*
X19610000Y-5304312D01*
X19859999Y-5304312D01*
X19860000Y-5304313D01*
X19860000Y-6275000D01*
X20828130Y-6275000D01*
X20828130Y-6274999D01*
X20820903Y-6197007D01*
X20765114Y-6000931D01*
X20674248Y-5818446D01*
X20551392Y-5655758D01*
X20400740Y-5518421D01*
X20227411Y-5411100D01*
X20037320Y-5337459D01*
X19859999Y-5304312D01*
X19610000Y-5304312D01*
X19432679Y-5337459D01*
X19242588Y-5411100D01*
X19069259Y-5518421D01*
X18918607Y-5655758D01*
X18795751Y-5818446D01*
X18704885Y-6000931D01*
X18649096Y-6197007D01*
X18641869Y-6274999D01*
X500500Y-6274999D01*
X500500Y-624500D01*
X517113Y-562500D01*
X562500Y-517113D01*
X624500Y-500500D01*
X29375500Y-500500D01*
X29437500Y-517113D01*
G37*
%TD.AperFunction*%
%TD*%
M02*
